# xmcd
#
# Track frame offsets: 
#        150
#        22951
#        35559
#        46834
#        59185
#        71979
#        89435
#        101274
#        110486
#        123261
#        135758
#        148769
#        161151
#        174155
#        189560
#        202443
#        213522
#        228980
#        244147
#        259534
#        276543
#        293123
#
# Disc length: 4130 seconds
#
# Revision: 4
# Processed by: cddbd v1.5.2PL0 Copyright (c) Steve Scherf et al.
# Submitted via: ExactAudioCopyFreeDBPlugin 1.0
#
DISCID=51102016
DTITLE=Ray Charles - Fifteen Classic Albums Plus Bonus Singles [Real G
DTITLE=one Music]
DYEAR=2011
DGENRE=Rhythm and Blues
TTITLE0=What'd I Say, Parts 1 and 2
TTITLE1=Jumpin' in the Mornin'
TTITLE2=You Be My Baby
TTITLE3=Tell Me How Do You Feel
TTITLE4=What Kind of Man Are You
TTITLE5=Rockhouse, Parts 1 and 2
TTITLE6=Roll with My Baby
TTITLE7=Tell All the World About You
TTITLE8=My Bonnie
TTITLE9=That's Enough
TTITLE10=Let the Good Times Roll
TTITLE11=It Had to Be You
TTITLE12=Alexander's Ragtime Band
TTITLE13=Two Years of Torture
TTITLE14=When Your Lover Has Gone
TTITLE15='Deed I Do
TTITLE16=Just for a Thrill
TTITLE17=You Won't Let Me Go
TTITLE18=Tell Me You'll Wait for Me
TTITLE19=Don't Let the Sun Catch You Crying
TTITLE20=Am I Blue?
TTITLE21=Come Rain or Come Shine
EXTD=
EXTT0=
EXTT1=
EXTT2=
EXTT3=
EXTT4=
EXTT5=
EXTT6=
EXTT7=
EXTT8=
EXTT9=
EXTT10=
EXTT11=
EXTT12=
EXTT13=
EXTT14=
EXTT15=
EXTT16=
EXTT17=
EXTT18=
EXTT19=
EXTT20=
EXTT21=
PLAYORDER=
